<svg width="60" height="60" viewBox="0 0 60 60" fill="none" xmlns="http://www.w3.org/2000/svg">
<path d="M42.2855 38.5449C41.6763 37.9096 41.2303 37.1385 40.9853 36.2967C40.7403 35.4548 40.7033 34.5669 40.8776 33.7079H13.6213C12.1302 33.7086 10.7004 34.2957 9.64629 35.3402C8.59216 36.3848 8 37.8011 8 39.278V41.5566C8 42.9732 8.4451 44.3552 9.2753 45.5093C13.1312 50.8689 19.4427 53.5214 27.9946 53.5214C28.9699 53.5214 29.9126 53.4868 30.8278 53.4174C30.5035 52.525 30.4144 51.5653 30.5689 50.6293C30.7233 49.6932 31.1163 48.8116 31.7105 48.0678L33.711 45.5663C34.3623 44.7521 35.2356 44.1397 36.2274 43.8017C37.2192 43.4638 38.288 43.4143 39.3073 43.6593L41.4028 44.162C42.7031 43.0797 43.4782 41.7473 43.7733 40.0904L42.2855 38.5424V38.5449ZM27.9946 4C29.6365 4 31.2624 4.32031 32.7793 4.94263C34.2962 5.56496 35.6745 6.47712 36.8355 7.62703C37.9965 8.77694 38.9175 10.1421 39.5458 11.6445C40.1742 13.1469 40.4975 14.7572 40.4975 16.3835C40.4975 18.0097 40.1742 19.62 39.5458 21.1224C38.9175 22.6248 37.9965 23.99 36.8355 25.1399C35.6745 26.2898 34.2962 27.202 32.7793 27.8243C31.2624 28.4466 29.6365 28.7669 27.9946 28.7669C24.6787 28.7669 21.4985 27.4622 19.1538 25.1399C16.809 22.8175 15.4917 19.6678 15.4917 16.3835C15.4917 13.0992 16.809 9.94938 19.1538 7.62703C21.4985 5.30468 24.6787 4 27.9946 4ZM43.4782 33.6955L44.6685 30.7111C45.2737 29.1904 46.9691 28.4004 48.5394 28.9081L49.6172 29.2573C51.4276 29.8443 52.9329 31.2535 52.993 33.1432C53.243 40.8457 46.8015 51.924 39.9574 55.5697C38.2745 56.4662 36.2866 55.8743 34.8687 54.6013L34.026 53.8459C33.4368 53.3176 33.0723 52.5872 33.0064 51.8027C32.9405 51.0182 33.178 50.2382 33.671 49.6207L35.6714 47.1192C36.3966 46.2103 37.5894 45.8066 38.7221 46.079L41.9529 46.8542C44.711 45.0462 46.1889 42.5051 46.3889 39.2285L44.0959 36.8409C43.7011 36.4294 43.4332 35.9147 43.3238 35.3575C43.2144 34.8002 43.268 34.2236 43.4782 33.6955Z" fill="black"/>
</svg>
